<svg xmlns="http://www.w3.org/2000/svg" viewBox="0 0 400 400" width="400" height="400"
     role="img" aria-labelledby="phm-title phm-desc">
  <title id="phm-title">PDFHorse mark</title>
  <desc id="phm-desc">PDFHorse badge-mark (zonder wordmark) — P/D/F als connected-dots constellatie in iCt Horse brand-gradient. Voor header-, favicon- en kleinformaat-gebruik.</desc>

  <defs>
    <radialGradient id="phm-halo" cx="0.5" cy="0.42" r="0.65">
      <stop offset="0%"   stop-color="#59c5a8" stop-opacity="0.22"/>
      <stop offset="100%" stop-color="#59c5a8" stop-opacity="0"/>
    </radialGradient>
    <pattern id="phm-dots" x="0" y="0" width="22" height="22" patternUnits="userSpaceOnUse">
      <circle cx="1.5" cy="1.5" r="1" fill="#59c5a8" fill-opacity="0.06"/>
    </pattern>
    <linearGradient id="phm-grad-P" x1="0" y1="0" x2="1" y2="1">
      <stop offset="0%"   stop-color="#095263" stop-opacity="0.85"/>
      <stop offset="100%" stop-color="#54c3b1" stop-opacity="0.65"/>
    </linearGradient>
    <linearGradient id="phm-grad-D" x1="0" y1="0" x2="1" y2="1">
      <stop offset="0%"   stop-color="#23a396" stop-opacity="0.85"/>
      <stop offset="100%" stop-color="#abcb3e" stop-opacity="0.65"/>
    </linearGradient>
    <linearGradient id="phm-grad-F" x1="0" y1="0" x2="1" y2="1">
      <stop offset="0%"   stop-color="#abcb3e" stop-opacity="0.85"/>
      <stop offset="100%" stop-color="#fa8f1a" stop-opacity="0.65"/>
    </linearGradient>
    <linearGradient id="phm-grad-PD" x1="0" y1="0" x2="1" y2="0">
      <stop offset="0%"   stop-color="#54c3b1" stop-opacity="0.40"/>
      <stop offset="100%" stop-color="#69c996" stop-opacity="0.40"/>
    </linearGradient>
    <linearGradient id="phm-grad-DF" x1="0" y1="0" x2="1" y2="0">
      <stop offset="0%"   stop-color="#abcb3e" stop-opacity="0.40"/>
      <stop offset="100%" stop-color="#ce9016" stop-opacity="0.40"/>
    </linearGradient>
    <radialGradient id="phm-glow-y" cx="0.5" cy="0.5" r="0.5">
      <stop offset="0%" stop-color="#ffcd26" stop-opacity="0.65"/>
      <stop offset="100%" stop-color="#ffcd26" stop-opacity="0"/>
    </radialGradient>
    <radialGradient id="phm-glow-b" cx="0.5" cy="0.5" r="0.5">
      <stop offset="0%" stop-color="#25a6ca" stop-opacity="0.65"/>
      <stop offset="100%" stop-color="#25a6ca" stop-opacity="0"/>
    </radialGradient>
    <radialGradient id="phm-glow-g" cx="0.5" cy="0.5" r="0.5">
      <stop offset="0%" stop-color="#41a36b" stop-opacity="0.65"/>
      <stop offset="100%" stop-color="#41a36b" stop-opacity="0"/>
    </radialGradient>
  </defs>

  <rect x="10" y="10" width="380" height="380" rx="48" fill="#070b14"/>
  <rect x="10" y="10" width="380" height="380" rx="48" fill="url(#phm-dots)"/>
  <rect x="10" y="10" width="380" height="380" rx="48" fill="url(#phm-halo)"/>
  <rect x="10" y="10" width="380" height="380" rx="48" fill="none"
        stroke="#178384" stroke-opacity="0.45" stroke-width="1.5"/>

  <g stroke="none">
    <polygon points="75,160 138,195 75,300" fill="url(#phm-grad-P)"/>
    <polygon points="165,160 240,230 165,300" fill="url(#phm-grad-D)"/>
    <polygon points="255,160 320,160 255,300" fill="url(#phm-grad-F)"/>
    <polygon points="138,195 165,160 240,230" fill="url(#phm-grad-PD)"/>
    <polygon points="240,230 255,160 320,160" fill="url(#phm-grad-DF)"/>
    <polygon points="75,300 165,300 138,195"  fill="url(#phm-grad-PD)" opacity="0.55"/>
    <polygon points="165,300 255,300 240,230" fill="url(#phm-grad-DF)" opacity="0.55"/>
  </g>

  <g stroke="#d5d9c9" stroke-width="0.8" stroke-opacity="0.55" fill="none" stroke-linecap="round">
    <line x1="75"  y1="160" x2="138" y2="195"/>
    <line x1="138" y1="195" x2="75"  y2="300"/>
    <line x1="165" y1="160" x2="240" y2="230"/>
    <line x1="240" y1="230" x2="165" y2="300"/>
    <line x1="255" y1="160" x2="320" y2="160"/>
    <line x1="255" y1="300" x2="320" y2="160"/>
    <line x1="138" y1="195" x2="165" y2="160"/>
    <line x1="138" y1="195" x2="240" y2="230"/>
    <line x1="240" y1="230" x2="255" y2="160"/>
    <line x1="240" y1="230" x2="320" y2="160"/>
    <line x1="240" y1="230" x2="255" y2="300"/>
  </g>

  <line x1="48" y1="160" x2="352" y2="160"
        stroke="#d5d9c9" stroke-width="1" stroke-opacity="0.55"
        stroke-dasharray="2 6" stroke-linecap="round"/>
  <line x1="48" y1="300" x2="352" y2="300"
        stroke="#d5d9c9" stroke-width="1" stroke-opacity="0.55"
        stroke-dasharray="2 6" stroke-linecap="round"/>
  <path d="M 138 195 Q 195 222, 240 230 T 320 160"
        stroke="#fa8f1a" stroke-width="1.4" fill="none"
        stroke-opacity="0.65" stroke-linecap="round"
        stroke-dasharray="3 4"/>

  <g>
    <circle cx="75"  cy="160" r="13" fill="url(#phm-glow-b)"/>
    <circle cx="165" cy="160" r="13" fill="url(#phm-glow-b)"/>
    <circle cx="255" cy="160" r="13" fill="url(#phm-glow-b)"/>
    <circle cx="138" cy="195" r="13" fill="url(#phm-glow-y)"/>
    <circle cx="240" cy="230" r="13" fill="url(#phm-glow-y)"/>
    <circle cx="320" cy="160" r="13" fill="url(#phm-glow-y)"/>
    <circle cx="75"  cy="300" r="13" fill="url(#phm-glow-g)"/>
    <circle cx="165" cy="300" r="13" fill="url(#phm-glow-g)"/>
    <circle cx="255" cy="300" r="13" fill="url(#phm-glow-g)"/>
  </g>

  <g fill="none" stroke="#e5f4ed" stroke-width="4.2"
     stroke-linecap="round" stroke-linejoin="round"
     vector-effect="non-scaling-stroke">
    <path d="M 75 300 L 75 160 L 115 160 C 145 160, 145 230, 115 230 L 75 230"/>
    <path d="M 165 300 L 165 160 L 200 160 C 250 160, 250 300, 200 300 L 165 300"/>
    <path d="M 255 300 L 255 160 L 320 160"/>
    <path d="M 255 220 L 305 220"/>
  </g>
  <g fill="none" stroke="#0c1a2a" stroke-width="0.8"
     stroke-linecap="round" stroke-linejoin="round" stroke-opacity="0.35">
    <path d="M 75 300 L 75 160 L 115 160 C 145 160, 145 230, 115 230 L 75 230"/>
    <path d="M 165 300 L 165 160 L 200 160 C 250 160, 250 300, 200 300 L 165 300"/>
    <path d="M 255 300 L 255 160 L 320 160"/>
    <path d="M 255 220 L 305 220"/>
  </g>

  <g>
    <circle cx="75"  cy="160" r="6" fill="#25a6ca"/>
    <circle cx="165" cy="160" r="6" fill="#25a6ca"/>
    <circle cx="255" cy="160" r="6" fill="#25a6ca"/>
    <circle cx="138" cy="195" r="6" fill="#ffcd26"/>
    <circle cx="240" cy="230" r="6" fill="#ffcd26"/>
    <circle cx="320" cy="160" r="6" fill="#ffcd26"/>
    <circle cx="75"  cy="300" r="6" fill="#41a36b"/>
    <circle cx="165" cy="300" r="6" fill="#41a36b"/>
    <circle cx="255" cy="300" r="6" fill="#41a36b"/>
    <g fill="none" stroke-width="1.4">
      <circle cx="75"  cy="160" r="6" stroke="#0c1a2a" stroke-opacity="0.5"/>
      <circle cx="165" cy="160" r="6" stroke="#0c1a2a" stroke-opacity="0.5"/>
      <circle cx="255" cy="160" r="6" stroke="#0c1a2a" stroke-opacity="0.5"/>
      <circle cx="138" cy="195" r="6" stroke="#0c1a2a" stroke-opacity="0.5"/>
      <circle cx="240" cy="230" r="6" stroke="#0c1a2a" stroke-opacity="0.5"/>
      <circle cx="320" cy="160" r="6" stroke="#0c1a2a" stroke-opacity="0.5"/>
      <circle cx="75"  cy="300" r="6" stroke="#0c1a2a" stroke-opacity="0.5"/>
      <circle cx="165" cy="300" r="6" stroke="#0c1a2a" stroke-opacity="0.5"/>
      <circle cx="255" cy="300" r="6" stroke="#0c1a2a" stroke-opacity="0.5"/>
    </g>
    <g fill="#ffffff" opacity="0.65">
      <circle cx="73"  cy="158" r="1.5"/>
      <circle cx="163" cy="158" r="1.5"/>
      <circle cx="253" cy="158" r="1.5"/>
      <circle cx="136" cy="193" r="1.5"/>
      <circle cx="238" cy="228" r="1.5"/>
      <circle cx="318" cy="158" r="1.5"/>
      <circle cx="73"  cy="298" r="1.5"/>
      <circle cx="163" cy="298" r="1.5"/>
      <circle cx="253" cy="298" r="1.5"/>
    </g>
  </g>
</svg>
